<svg width="250" height="260" viewBox="0 0 250 260" fill="none" xmlns="http://www.w3.org/2000/svg">
<path d="M170.043 245.588C157.566 243.188 152.599 241.3 149.919 237.257L171.746 241.422L177.24 249.158L170.043 245.588Z" fill="white"/>
<path fill-rule="evenodd" clip-rule="evenodd" d="M149.6 237.044L171.833 241.287L177.361 249.072L177.174 249.292L169.995 245.73C163.766 244.532 159.399 243.459 156.251 242.177C153.095 240.891 151.156 239.392 149.795 237.339L149.6 237.044ZM150.246 237.471C151.554 239.312 153.403 240.695 156.363 241.901C159.485 243.172 163.833 244.242 170.071 245.442L170.09 245.446L176.777 248.762L171.66 241.557L150.246 237.471Z" fill="white"/>
<path d="M58.8962 25.4081C80.2437 17.9381 116.553 29.7049 127.052 56.5011C133.484 79.0705 117.633 95.095 93.0482 84.4698C85.662 80.356 82.4625 76.6236 75.8237 71.3781C67.5287 66.3624 61.2702 73.8696 68.2509 80.3042C73.1634 85.297 91.4605 90.59 103.888 97.4128C113.041 101.694 122.777 111.249 129.13 125.828C133.82 136.66 134.501 149.185 130.021 162.277C126.581 172.332 121.247 178.039 114.483 184.591C113.563 185.483 112.528 186.254 111.395 186.852C85.0031 200.793 55.9327 199.256 41.0778 192.031C20.9556 182.242 13.7203 174.319 10.0916 153.046C9.95838 152.265 9.89072 151.459 9.91008 150.667C10.3231 133.768 19.5242 125.43 31.2777 122.109C41.0012 119.361 53.6569 123.917 79.0859 145.71C80.2663 146.721 81.5854 147.636 83.106 147.954C89.8762 149.371 96.1923 144.392 91.7952 136.526C91.2909 135.624 90.5945 134.835 89.8308 134.139C81.4316 126.49 73.6754 123.444 55.6295 118.389C41.8202 114.521 31.2064 105.518 23.7049 88.3378C20.7585 78.0946 20.5864 60.727 27.5655 52.633C39.8619 37.1717 46.7254 30.9727 58.8962 25.4081Z" fill="#2F83A2"/>
<path fill-rule="evenodd" clip-rule="evenodd" d="M58.9516 25.5463C46.8149 31.0963 39.9692 37.2756 27.6817 52.7257L27.6798 52.728L27.6779 52.7303C24.2195 56.7411 22.5215 63.0676 22.0613 69.6898C21.6016 76.3034 22.3785 83.1842 23.8448 88.2872C31.3306 105.426 41.911 114.392 55.6695 118.246C73.7181 123.302 81.5039 126.354 89.9307 134.029C90.7019 134.732 91.4103 135.533 91.9248 136.453C94.1466 140.428 93.6769 143.712 91.7478 145.822C89.8289 147.92 86.4996 148.816 83.0756 148.099C81.5176 147.773 80.1751 146.839 78.9893 145.823C66.2782 134.929 56.7693 128.352 49.2297 124.841C41.6941 121.332 36.1364 120.89 31.318 122.252C25.4624 123.907 20.2527 126.808 16.4554 131.391C12.6591 135.973 10.2643 142.249 10.0585 150.671C10.0394 151.452 10.1062 152.248 10.238 153.021C12.0502 163.645 14.7598 170.916 19.5146 176.751C24.2714 182.589 31.0868 187.005 41.1427 191.897C55.9511 199.1 84.9716 200.641 111.326 186.72C112.445 186.129 113.469 185.367 114.38 184.484C121.139 177.937 126.452 172.249 129.881 162.228C134.349 149.17 133.669 136.684 128.994 125.887C122.653 111.337 112.941 101.812 103.825 97.5476L103.821 97.5456L103.816 97.5433C98.4696 94.6078 92.034 91.9556 86.0394 89.4852C85.0776 89.0888 84.1272 88.6971 83.1944 88.3097C79.8235 86.9096 76.6831 85.5649 74.0775 84.2573C71.4772 82.9524 69.3945 81.6773 68.1477 80.4113C64.6245 77.162 64.3976 73.5874 66.1954 71.4514C67.9877 69.3219 71.7149 68.7198 75.9004 71.2507L75.9084 71.2555L75.9157 71.2612C77.9769 72.8899 79.7042 74.3701 81.3255 75.7594C84.9398 78.8566 88.0275 81.5025 93.1138 84.3361C105.369 89.6308 115.409 88.2699 121.583 82.8218C127.758 77.3725 130.113 67.793 126.911 56.5488C121.679 43.2022 110.016 33.5883 96.9859 28.2424C83.9546 22.896 69.582 21.8289 58.9516 25.5463ZM97.0984 27.9671C110.182 33.3352 121.922 43.0006 127.19 56.4467L127.192 56.4534L127.194 56.4602C130.421 67.7825 128.066 77.4972 121.779 83.0451C115.491 88.5943 105.315 89.9336 92.9894 84.6064L92.9826 84.6035L92.9761 84.5998C87.8591 81.7499 84.7383 79.0759 81.111 75.9678C79.4947 74.5829 77.7779 73.1119 75.7391 71.5006C71.633 69.0215 68.0869 69.6656 66.4225 71.6432C64.7629 73.615 64.8965 77.01 68.3514 80.1948L68.3541 80.1972L68.3566 80.1998C69.5664 81.4293 71.6119 82.6872 74.2105 83.9913C76.8057 85.2936 79.9373 86.6348 83.3081 88.0349C84.2393 88.4216 85.1888 88.8129 86.15 89.209C92.1417 91.6782 98.5931 94.3368 103.955 97.28C113.145 101.58 122.902 111.164 129.267 125.768C133.972 136.635 134.653 149.199 130.162 162.325C126.71 172.414 121.354 178.142 114.586 184.698C113.657 185.598 112.61 186.378 111.465 186.983C85.0345 200.944 55.9142 199.413 41.013 192.164C30.9466 187.268 24.0832 182.829 19.2846 176.939C14.4841 171.048 11.7617 163.72 9.94524 153.071C9.8106 152.282 9.74201 151.466 9.76163 150.664C9.96881 142.186 12.3811 135.843 16.2269 131.201C20.0718 126.56 25.3395 123.632 31.2374 121.965C36.1425 120.579 41.7745 121.041 49.3548 124.572C56.9312 128.1 66.4645 134.697 79.1824 145.597C80.3575 146.604 81.6532 147.498 83.1363 147.808C86.4826 148.509 89.6964 147.624 91.5289 145.621C93.3511 143.628 93.8409 140.49 91.6657 136.599C91.1716 135.715 90.487 134.938 89.7309 134.249C81.3593 126.625 73.6327 123.587 55.5895 118.533C41.7319 114.651 31.0858 105.613 23.5688 88.3975L23.5649 88.3885L23.5622 88.379C22.0839 83.2397 21.3028 76.3195 21.765 69.6691C22.2268 63.0245 23.9318 56.6213 27.4512 52.538C39.7533 37.0699 46.6341 30.8509 58.8346 25.2728L58.8408 25.2699L58.8473 25.2677C69.5637 21.5177 84.0162 22.5997 97.0984 27.9671Z" fill="#2F83A2"/>
<path d="M231.141 252.134C222.677 258.233 173.231 260.167 177.389 242.612L178.725 239.042L231.141 252.134Z" fill="white"/>
<path fill-rule="evenodd" clip-rule="evenodd" d="M178.632 238.865L231.488 252.067L231.228 252.254C230.148 253.032 228.429 253.735 226.271 254.339C224.108 254.944 221.492 255.452 218.606 255.835C212.836 256.601 205.981 256.867 199.521 256.392C193.064 255.917 186.984 254.702 182.774 252.496C180.668 251.392 179.02 250.035 178.03 248.389C177.038 246.738 176.716 244.808 177.244 242.578L177.246 242.569L178.632 238.865ZM178.818 239.218L177.531 242.656C177.023 244.811 177.337 246.658 178.285 248.235C179.236 249.819 180.835 251.144 182.912 252.232C187.068 254.41 193.1 255.621 199.543 256.095C205.982 256.569 212.816 256.304 218.567 255.54C221.443 255.159 224.045 254.653 226.191 254.053C228.161 253.501 229.736 252.874 230.783 252.198L178.818 239.218Z" fill="white"/>
<path d="M156.451 228.182C142.938 228.182 136.027 217.874 136.109 209.883L135.961 92.2059C135.961 79.7092 146.503 72.8657 156.452 72.8657C166.401 72.8657 175.458 79.5604 175.458 92.0571V122.406C175.458 124.191 175.755 124.935 177.092 124.935H207.68C209.016 124.935 209.313 124.191 209.313 122.406V92.3546C209.313 79.8579 219.856 73.0145 229.804 73.0145C239.753 73.0145 248.811 79.7092 248.811 92.2059V122.555L249.851 209.883C249.933 217.874 243.021 228.182 229.508 228.182C215.995 228.182 209.016 217.47 209.462 209.883V167.037C209.465 165.739 209.23 165.28 207.977 165.401H177.983C176.729 165.28 176.494 165.739 176.498 167.037V209.883C176.943 217.47 169.964 228.182 156.451 228.182Z" fill="#FF8D7E"/>
<path fill-rule="evenodd" clip-rule="evenodd" d="M156.452 73.0145C146.56 73.0145 136.109 79.8143 136.109 92.2059L136.257 209.885C136.176 217.798 143.026 228.033 156.451 228.033C169.877 228.033 176.79 217.395 176.349 209.892L176.349 209.887V167.038C176.348 166.71 176.362 166.427 176.406 166.19C176.45 165.953 176.525 165.75 176.654 165.592C176.919 165.269 177.36 165.192 177.99 165.252H207.97C208.6 165.192 209.04 165.269 209.305 165.592C209.435 165.75 209.51 165.953 209.553 166.19C209.597 166.427 209.611 166.71 209.61 167.038V209.887L209.61 209.892C209.169 217.395 216.082 228.033 229.508 228.033C242.933 228.033 249.783 217.799 249.702 209.885M249.702 209.885L248.662 122.557L248.662 122.555V92.2059C248.662 85.996 246.413 81.2389 242.938 78.0334C239.46 74.826 234.746 73.1633 229.804 73.1633C219.913 73.1633 209.462 79.963 209.462 92.3546V122.704H209.459C209.443 123.448 209.36 124.019 209.126 124.416C208.99 124.646 208.805 124.816 208.56 124.927C208.319 125.036 208.026 125.084 207.68 125.084H177.092C176.745 125.084 176.453 125.036 176.212 124.927C175.967 124.816 175.782 124.646 175.646 124.416C175.382 123.968 175.31 123.297 175.31 122.406V92.0571C175.31 85.8473 173.061 81.0902 169.585 77.8846C166.108 74.6772 161.394 73.0145 156.452 73.0145M209.165 122.406C209.165 123.301 209.088 123.894 208.87 124.265C208.764 124.444 208.625 124.571 208.438 124.656C208.248 124.742 208.002 124.787 207.68 124.787H177.092C176.77 124.787 176.524 124.742 176.334 124.656C176.147 124.571 176.007 124.444 175.902 124.265C175.683 123.894 175.607 123.301 175.607 122.406V92.0571C175.607 85.7702 173.327 80.9317 169.786 77.6657C166.248 74.4016 161.459 72.717 156.452 72.717C146.446 72.717 135.812 79.6041 135.812 92.2059L135.96 209.882C135.878 217.951 142.851 228.331 156.451 228.331C170.049 228.331 177.094 217.55 176.646 209.879V167.037C176.645 166.715 176.659 166.454 176.698 166.244C176.737 166.034 176.798 165.886 176.884 165.781C177.048 165.582 177.349 165.489 177.968 165.549L177.975 165.55H207.984L207.991 165.549C208.611 165.489 208.912 165.582 209.076 165.781C209.161 165.886 209.223 166.034 209.261 166.244C209.3 166.454 209.314 166.715 209.313 167.037V209.879C208.866 217.55 215.911 228.331 229.508 228.331C243.109 228.331 250.082 217.951 249.999 209.881L248.959 122.555V122.553V92.2059C248.959 85.919 246.68 81.0804 243.139 77.8145C239.6 74.5504 234.811 72.8657 229.804 72.8657C219.799 72.8657 209.165 79.7529 209.165 92.3546V122.406Z" fill="#FF8D7E"/>
<path d="M244.059 194.411C244.059 197.04 241.932 199.172 239.308 199.172C236.683 199.172 234.556 197.04 234.556 194.411C234.556 191.782 236.683 189.65 239.308 189.65C241.932 189.65 244.059 191.782 244.059 194.411Z" fill="white"/>
<path fill-rule="evenodd" clip-rule="evenodd" d="M239.24 201.621C241.701 201.621 243.695 203.619 243.695 206.084C243.695 211.415 241.758 215.216 238.566 217.469C235.663 219.518 232.42 219.771 230.695 219.771C228.235 219.771 226.241 217.773 226.241 215.308C226.241 212.843 228.235 210.845 230.695 210.845C231.725 210.845 232.755 210.652 233.436 210.172C233.827 209.895 234.786 209.085 234.786 206.084C234.786 203.619 236.78 201.621 239.24 201.621Z" fill="white"/>
<path fill-rule="evenodd" clip-rule="evenodd" d="M165.73 179.831C168.191 179.831 170.185 181.83 170.185 184.295C170.185 186.714 170.257 189.075 170.329 191.451C170.362 192.553 170.396 193.658 170.422 194.774C170.503 198.196 170.516 201.661 170.176 204.852C169.503 211.174 167.249 217.847 159.858 220.61C157.553 221.472 154.988 220.299 154.127 217.989C153.267 215.68 154.439 213.109 156.744 212.247C159.302 211.291 160.762 209.113 161.317 203.905C161.591 201.331 161.595 198.361 161.515 194.987C161.492 193.991 161.46 192.953 161.428 191.886C161.354 189.443 161.276 186.852 161.276 184.295C161.276 181.83 163.27 179.831 165.73 179.831Z" fill="white"/>
<path d="M165.51 230.711C160.473 232.937 157.196 234.57 149.971 236.646C149.937 236.656 149.897 236.677 149.869 236.7C147.132 238.95 169.269 241.193 171.429 241.406C171.542 241.417 171.623 241.49 171.665 241.595C171.98 242.378 173.389 245.678 175.904 248.593C179.435 252.687 183.708 256.685 187.401 256.163C187.457 256.155 187.512 256.134 187.537 256.084C188.258 254.676 176.959 242.905 177.834 242.612C178.715 242.318 179.224 242.415 180.177 242.75C180.199 242.757 180.22 242.768 180.239 242.78C191.666 250.097 197.84 252.187 202.186 253.026C204.263 253.427 216.859 255.848 229.911 252.887C229.939 252.881 229.966 252.87 229.991 252.856C236.315 249.303 237.667 244.291 239.872 242.635C239.892 242.62 239.912 242.608 239.936 242.599C242.874 241.396 247.653 236.175 246.192 232.477C246.16 232.395 246.088 232.327 246 232.33C245.02 232.363 244.154 235.658 242.277 236.364C241.726 236.496 241.402 236.503 240.793 236.364C238.829 235.625 235.299 230.86 235.299 232.496C235.299 235.769 236.635 239.488 237.377 240.381C238.116 241.269 236.404 243.487 234.145 244.238C234.122 244.245 234.098 244.25 234.074 244.252C226.677 244.798 222.54 244.894 215.253 244.249C210.204 243.356 203.341 240.065 202.186 237.108C201.038 232.398 209.557 230.561 207.531 229.372C205.511 228.185 202.598 227.285 199.389 228.322C199.373 228.328 199.357 228.335 199.342 228.342C194.521 230.899 192.681 231.455 191.346 231.901C190.01 232.347 184.759 233.545 180.21 231.901C170.607 229.028 168.925 229.372 165.51 230.711Z" fill="#2F83A2"/>
<path d="M170.664 246.143C170.439 246.038 170.194 246.238 170.254 246.479C172.067 253.803 175.829 258.417 178.577 259.721C181.344 261.034 177.254 252.042 176.816 249.17C176.8 249.068 176.737 248.983 176.644 248.939L170.664 246.143Z" fill="#2F83A2"/>
<path fill-rule="evenodd" clip-rule="evenodd" d="M207.456 229.5C205.46 228.327 202.59 227.443 199.435 228.464C199.427 228.466 199.419 228.47 199.411 228.474C194.838 230.899 192.938 231.529 191.611 231.969C191.537 231.994 191.464 232.018 191.393 232.042C190.713 232.269 189.054 232.682 186.994 232.833C184.935 232.983 182.463 232.872 180.163 232.042C175.364 230.607 172.559 229.98 170.532 229.875C168.516 229.771 167.266 230.182 165.567 230.848C164.926 231.131 164.314 231.404 163.719 231.671C159.634 233.496 156.327 234.974 150.012 236.789C149.998 236.793 149.975 236.805 149.963 236.815C149.811 236.94 149.778 237.038 149.784 237.108C149.791 237.187 149.851 237.293 150.014 237.423C150.337 237.681 150.961 237.947 151.823 238.212C153.536 238.739 156.105 239.236 158.836 239.67C164.293 240.538 170.364 241.151 171.444 241.258C171.622 241.275 171.744 241.393 171.803 241.54C172.115 242.315 173.51 245.581 175.995 248.472L176.706 248.804C176.846 248.869 176.94 248.997 176.963 249.148C176.987 249.309 177.024 249.489 177.07 249.687C178.54 251.305 180.105 252.834 181.68 253.989C183.642 255.428 185.593 256.268 187.381 256.016C187.385 256.015 187.389 256.015 187.393 256.014C187.396 256.013 187.398 256.012 187.401 256.012C187.404 256.011 187.407 256.01 187.408 256.009C187.425 255.969 187.432 255.887 187.394 255.742C187.355 255.594 187.277 255.406 187.16 255.182C186.927 254.734 186.553 254.165 186.082 253.514C185.141 252.212 183.827 250.603 182.514 249.025C182.17 248.612 181.826 248.201 181.49 247.798C180.542 246.665 179.65 245.597 178.966 244.735C178.503 244.152 178.132 243.657 177.904 243.297C177.791 243.119 177.707 242.965 177.666 242.844C177.646 242.786 177.631 242.718 177.64 242.652C177.645 242.617 177.658 242.578 177.685 242.543C177.713 242.507 177.749 242.484 177.787 242.471C178.242 242.319 178.61 242.266 178.991 242.297C179.368 242.328 179.748 242.442 180.226 242.609C180.259 242.621 180.291 242.636 180.319 242.655C191.736 249.965 197.893 252.046 202.214 252.88C204.287 253.281 216.858 255.695 229.878 252.742C229.892 252.739 229.906 252.734 229.918 252.727C233.056 250.963 234.96 248.839 236.356 246.946C236.792 246.355 237.175 245.791 237.532 245.265C237.751 244.944 237.96 244.636 238.166 244.345C238.702 243.586 239.211 242.945 239.783 242.516C239.814 242.492 239.846 242.475 239.879 242.461C241.316 241.873 243.225 240.289 244.593 238.387C245.965 236.479 246.755 234.307 246.054 232.532C246.046 232.511 246.034 232.496 246.023 232.487C246.014 232.479 246.008 232.479 246.005 232.479C245.925 232.481 245.834 232.518 245.727 232.601C245.62 232.685 245.507 232.808 245.387 232.965C245.193 233.218 244.993 233.54 244.773 233.895C244.717 233.986 244.66 234.079 244.601 234.173C244.313 234.632 243.993 235.12 243.624 235.539C243.255 235.957 242.83 236.315 242.33 236.503L242.321 236.507L242.312 236.509C242.03 236.576 241.799 236.613 241.557 236.614C241.316 236.615 241.07 236.58 240.76 236.509L240.75 236.507L240.74 236.503C240.222 236.308 239.616 235.856 239.009 235.33C238.505 234.895 237.99 234.399 237.509 233.937C237.407 233.839 237.306 233.741 237.207 233.647C236.639 233.104 236.148 232.65 235.802 232.432C235.716 232.378 235.645 232.342 235.589 232.323C235.53 232.302 235.5 232.304 235.49 232.307C235.488 232.307 235.482 232.306 235.472 232.326C235.46 232.352 235.447 232.404 235.447 232.496C235.447 234.114 235.778 235.848 236.202 237.289C236.414 238.009 236.648 238.654 236.875 239.173C237.104 239.695 237.32 240.079 237.491 240.286C237.718 240.558 237.744 240.92 237.645 241.291C237.546 241.663 237.317 242.065 237 242.455C236.365 243.235 235.349 243.994 234.191 244.379C234.157 244.39 234.121 244.397 234.085 244.4C226.682 244.947 222.537 245.043 215.24 244.397L215.233 244.397L215.227 244.395C212.686 243.946 209.694 242.895 207.191 241.584C205.939 240.929 204.805 240.207 203.91 239.46C203.017 238.715 202.35 237.935 202.048 237.162L202.044 237.153L202.042 237.143C201.742 235.915 202.076 234.873 202.701 233.993C203.322 233.118 204.234 232.398 205.103 231.797C205.438 231.566 205.77 231.351 206.077 231.151C206.169 231.091 206.259 231.033 206.346 230.976C206.727 230.727 207.054 230.506 207.294 230.305C207.414 230.205 207.509 230.114 207.576 230.03C207.645 229.945 207.679 229.876 207.691 229.821C207.702 229.772 207.695 229.728 207.666 229.681C207.634 229.629 207.571 229.567 207.456 229.5ZM176.679 249.252C176.675 249.232 176.672 249.212 176.669 249.193C176.661 249.139 176.629 249.096 176.581 249.074L176.478 249.026C176.545 249.101 176.612 249.177 176.679 249.252ZM175.812 248.714C176.135 249.088 176.464 249.462 176.799 249.831C176.961 250.507 177.226 251.354 177.524 252.262C177.637 252.608 177.756 252.964 177.875 253.324C178.18 254.24 178.494 255.182 178.756 256.058C179.122 257.282 179.381 258.352 179.382 259.031C179.382 259.198 179.367 259.335 179.336 259.44C179.306 259.545 179.264 259.61 179.219 259.648C179.138 259.715 178.974 259.745 178.64 259.587C177.299 258.95 175.69 257.493 174.188 255.274C172.688 253.057 171.301 250.089 170.398 246.443C170.369 246.325 170.488 246.225 170.601 246.278L175.812 248.714ZM175.361 248.175L170.726 246.008C170.391 245.851 170.02 246.151 170.11 246.514C171.021 250.192 172.421 253.193 173.942 255.441C175.461 257.685 177.107 259.188 178.513 259.855C178.87 260.025 179.185 260.062 179.408 259.877C179.514 259.789 179.581 259.664 179.622 259.522C179.662 259.381 179.679 259.214 179.679 259.03C179.678 258.302 179.405 257.191 179.04 255.972C178.777 255.092 178.461 254.143 178.156 253.225C178.036 252.866 177.919 252.512 177.806 252.169C177.583 251.488 177.382 250.851 177.228 250.299C178.595 251.773 180.043 253.157 181.504 254.229C183.485 255.682 185.517 256.579 187.422 256.311C187.492 256.301 187.61 256.268 187.669 256.152C187.74 256.013 187.726 255.839 187.681 255.666C187.634 255.487 187.544 255.277 187.423 255.044C187.18 254.577 186.796 253.994 186.322 253.339C185.375 252.028 184.054 250.412 182.742 248.835C182.397 248.42 182.052 248.008 181.715 247.604C180.768 246.472 179.88 245.409 179.199 244.55C178.737 243.967 178.374 243.483 178.155 243.138C178.044 242.963 177.976 242.833 177.948 242.749C177.946 242.743 177.944 242.738 177.943 242.733C178.339 242.607 178.651 242.568 178.966 242.594C179.303 242.621 179.653 242.723 180.128 242.89C180.139 242.894 180.15 242.899 180.159 242.905C191.596 250.228 197.787 252.328 202.158 253.172C204.238 253.574 216.86 256 229.944 253.032C229.986 253.023 230.026 253.007 230.063 252.986C233.249 251.196 235.183 249.038 236.595 247.122C237.033 246.529 237.424 245.954 237.785 245.423C238.002 245.103 238.209 244.799 238.408 244.517C238.943 243.759 239.43 243.153 239.961 242.754C239.97 242.747 239.979 242.741 239.992 242.736C241.494 242.121 243.443 240.494 244.834 238.561C246.221 236.633 247.09 234.346 246.33 232.422C246.284 232.306 246.169 232.175 245.995 232.181C245.83 232.187 245.68 232.261 245.544 232.366C245.409 232.472 245.278 232.618 245.151 232.784C244.948 233.05 244.738 233.389 244.517 233.746C244.462 233.835 244.406 233.925 244.349 234.015C244.063 234.473 243.753 234.943 243.402 235.342C243.052 235.738 242.668 236.056 242.234 236.222C241.968 236.285 241.764 236.316 241.556 236.317C241.348 236.317 241.129 236.288 240.835 236.221C240.373 236.045 239.805 235.626 239.203 235.105C238.706 234.675 238.197 234.186 237.717 233.725C237.614 233.625 237.512 233.527 237.412 233.432C236.851 232.895 236.337 232.418 235.96 232.18C235.864 232.12 235.772 232.071 235.686 232.041C235.601 232.012 235.508 231.995 235.418 232.018C235.32 232.042 235.248 232.107 235.205 232.197C235.165 232.281 235.15 232.383 235.15 232.496C235.15 234.151 235.488 235.913 235.917 237.373C236.132 238.104 236.371 238.76 236.603 239.292C236.834 239.821 237.064 240.236 237.263 240.476C237.406 240.648 237.443 240.897 237.358 241.214C237.273 241.532 237.071 241.897 236.77 242.267C236.169 243.005 235.199 243.73 234.098 244.096C234.088 244.1 234.076 244.102 234.064 244.103C226.674 244.649 222.545 244.745 215.272 244.101C212.766 243.657 209.805 242.617 207.328 241.321C206.089 240.672 204.974 239.961 204.1 239.231C203.227 238.502 202.605 237.765 202.328 237.063C202.057 235.94 202.358 234.989 202.943 234.165C203.533 233.334 204.409 232.638 205.272 232.042C205.603 231.813 205.93 231.601 206.236 231.402C206.329 231.342 206.42 231.283 206.509 231.225C206.888 230.977 207.229 230.747 207.484 230.534C207.612 230.428 207.723 230.322 207.807 230.217C207.891 230.113 207.956 230.002 207.981 229.883C208.008 229.76 207.988 229.638 207.919 229.525C207.852 229.416 207.745 229.324 207.607 229.243C205.563 228.043 202.605 227.126 199.344 228.181C199.319 228.189 199.295 228.199 199.272 228.211C194.72 230.625 192.834 231.251 191.519 231.687C191.444 231.711 191.371 231.736 191.299 231.76C190.643 231.979 189.009 232.387 186.972 232.536C184.936 232.685 182.508 232.573 180.26 231.761L180.256 231.759L180.252 231.758C175.451 230.322 172.615 229.685 170.547 229.578C168.468 229.47 167.17 229.9 165.456 230.572L165.453 230.573L165.45 230.574C164.808 230.858 164.194 231.132 163.597 231.399C159.514 233.224 156.224 234.694 149.93 236.503C149.877 236.519 149.818 236.549 149.775 236.585C149.585 236.741 149.47 236.925 149.489 237.134C149.506 237.335 149.644 237.508 149.829 237.656C150.2 237.952 150.874 238.232 151.736 238.497C153.471 239.03 156.058 239.529 158.789 239.964C164.256 240.833 170.334 241.447 171.415 241.554C171.462 241.559 171.502 241.586 171.528 241.651C171.826 242.394 173.1 245.379 175.361 248.175Z" fill="#2F83A2"/>
<path d="M168.628 235.471C168.628 236.457 167.83 237.257 166.846 237.257C165.862 237.257 165.064 236.457 165.064 235.471C165.064 234.485 165.862 233.686 166.846 233.686C167.83 233.686 168.628 234.485 168.628 235.471Z" fill="white"/>
<path fill-rule="evenodd" clip-rule="evenodd" d="M23.4931 6.904C23.7901 2.88711 26.2099 -0.317172 29.6251 0.0250885C36.4199 0.705854 36.2206 10.2137 40.6909 17.6375C41.5109 18.9993 43.0179 19.9448 44.3064 19.0159C48.2213 16.1937 54.285 6.07613 63.0621 6.94012C66.0284 7.23211 67.9843 10.225 66.93 13.0182C64.0346 20.6897 53.5463 27.6238 54.536 32.2843C55.5133 36.8867 74.3837 41.3929 71.5203 50.3423C71.1378 51.5376 70.2119 52.5107 69.0247 52.9118C61.4211 55.4808 46.6618 47.6005 43.993 51.1797C38.6907 58.2907 42.2116 72.6008 33.599 70.2213C24.9864 67.8418 29.8869 50.7314 26.6201 47.3107C23.3533 43.89 0.931839 50.435 0.0322956 42.9064C-0.824318 35.7371 15.5701 35.8812 24.1893 27.9462C25.0449 27.1586 25.6612 26.1316 25.8566 24.9841C26.9187 18.7457 23.2115 10.7116 23.4931 6.904Z" fill="#FF8D7E"/>
<path d="M28.1659 6.40987C27.9983 5.89949 28.2755 5.34963 28.7849 5.18174C29.2943 5.01384 29.8431 5.29149 30.0107 5.80188L32.8614 14.4845C33.029 14.9949 32.7518 15.5448 32.2424 15.7127C31.733 15.8805 31.1842 15.6029 31.0166 15.0925L28.1659 6.40987Z" fill="white"/>
<path d="M32.3235 18.9066C32.156 18.3962 32.4331 17.8463 32.9425 17.6784C33.4519 17.5105 34.0007 17.7882 34.1683 18.2986L36.067 24.0816C36.2346 24.592 35.9575 25.1418 35.448 25.3097C34.9386 25.4776 34.3898 25.2 34.2222 24.6896L32.3235 18.9066Z" fill="white"/>
<path d="M60.2031 11.6947C60.5942 11.327 61.2087 11.3466 61.5756 11.7384C61.9426 12.1303 61.923 12.7459 61.5319 13.1136L54.8791 19.3678C54.488 19.7355 53.8735 19.7159 53.5065 19.3241C53.1396 18.9322 53.1592 18.3166 53.5502 17.9489L60.2031 11.6947Z" fill="white"/>
<path d="M50.6509 20.7458C51.042 20.3782 51.6565 20.3978 52.0234 20.7896C52.3903 21.1814 52.3708 21.7971 51.9797 22.1648L47.5486 26.3304C47.1575 26.698 46.543 26.6784 46.1761 26.2866C45.8091 25.8948 45.8287 25.2791 46.2198 24.9115L50.6509 20.7458Z" fill="white"/>
<path d="M65.3451 46.7985C65.8427 46.9989 66.0838 47.5656 65.8837 48.0641C65.6836 48.5626 65.1181 48.8042 64.6206 48.6037L56.1564 45.1935C55.6588 44.993 55.4177 44.4264 55.6178 43.9279C55.8178 43.4294 56.3834 43.1878 56.8809 43.3882L65.3451 46.7985Z" fill="white"/>
<path d="M53.1277 41.9321C53.6252 42.1326 53.8664 42.6992 53.6663 43.1977C53.4662 43.6962 52.9007 43.9378 52.4031 43.7373L46.7656 41.4659C46.268 41.2655 46.0269 40.6989 46.227 40.2004C46.4271 39.7019 46.9926 39.4603 47.4902 39.6607L53.1277 41.9321Z" fill="white"/>
<path d="M35.715 64.1695C35.7082 64.7067 35.268 65.1367 34.7318 65.1299C34.1956 65.1231 33.7664 64.6821 33.7731 64.1449L33.8886 55.0053C33.8954 54.468 34.3356 54.038 34.8718 54.0448C35.4081 54.0516 35.8372 54.4926 35.8305 55.0299L35.715 64.1695Z" fill="white"/>
<path d="M35.8295 50.9974C35.8227 51.5346 35.3825 51.9646 34.8463 51.9578C34.3101 51.951 33.8809 51.51 33.8877 50.9727L33.9646 44.8854C33.9713 44.3481 34.4115 43.9181 34.9478 43.9249C35.484 43.9317 35.9132 44.3727 35.9064 44.91L35.8295 50.9974Z" fill="white"/>
<path d="M7.09808 42.9783C6.57091 43.0769 6.0638 42.7286 5.96541 42.2004C5.86702 41.6722 6.21461 41.1642 6.74178 41.0656L15.7098 39.3886C16.237 39.29 16.7441 39.6383 16.8425 40.1664C16.9409 40.6946 16.5933 41.2027 16.0661 41.3013L7.09808 42.9783Z" fill="white"/>
<path d="M20.0128 40.5104C19.4856 40.6089 18.9785 40.2607 18.8801 39.7325C18.7817 39.2043 19.1293 38.6963 19.6565 38.5977L25.6296 37.4807C26.1568 37.3821 26.6639 37.7304 26.7623 38.2586C26.8607 38.7867 26.5131 39.2948 25.9859 39.3934L20.0128 40.5104Z" fill="white"/>
<path fill-rule="evenodd" clip-rule="evenodd" d="M77.4142 172.327C78.7852 168.541 81.9801 166.112 85.1755 167.368C91.5328 169.865 88.773 178.964 91.0714 187.323C91.4929 188.856 92.6884 190.175 94.1797 189.63C98.8591 187.921 107.846 179.342 116.303 183.443C118.538 184.526 119.662 187.228 118.344 189.336C114.272 195.845 100.756 200.331 100.444 205.177C100.142 209.873 117.091 219.327 111.917 227.166C111.226 228.213 110.072 228.899 108.821 228.963C100.807 229.375 88.7267 217.787 85.1907 220.509C78.1656 225.917 77.6902 240.648 70.0416 236.022C62.393 231.396 71.7321 216.253 69.5111 212.074C67.29 207.895 43.9374 208.117 45.1048 200.626C46.2165 193.492 61.9604 198.075 72.4012 192.773C73.4375 192.247 74.3082 191.425 74.8063 190.374C77.5137 184.656 76.1147 175.916 77.4142 172.327Z" fill="#FF8D7E"/>
<path d="M84.4945 194.371C82.9068 194.784 81.2862 193.828 80.8748 192.237C80.4633 190.647 81.4169 189.023 83.0046 188.611C84.5923 188.199 86.2129 189.154 86.6243 190.745C87.0357 192.335 86.0822 193.959 84.4945 194.371Z" fill="white"/>
<path d="M84.0939 177.431C83.3001 177.637 82.4898 177.159 82.2841 176.364C82.0784 175.569 82.5552 174.757 83.349 174.551C84.1429 174.345 84.9532 174.822 85.1589 175.618C85.3646 176.413 84.8878 177.225 84.0939 177.431Z" fill="white"/>
<path d="M84.2942 185.009C83.1035 185.318 81.888 184.601 81.5795 183.408C81.2709 182.215 81.9861 180.997 83.1769 180.688C84.3676 180.379 85.5831 181.096 85.8916 182.289C86.2002 183.482 85.485 184.699 84.2942 185.009Z" fill="white"/>
<path d="M75.4793 201.564C75.8351 203.168 74.8256 204.757 73.2245 205.114C71.6234 205.47 70.037 204.459 69.6813 202.854C69.3255 201.25 70.335 199.661 71.9361 199.304C73.5371 198.948 75.1235 199.959 75.4793 201.564Z" fill="white"/>
<path d="M58.5676 201.374C58.7455 202.176 58.2407 202.971 57.4402 203.149C56.6396 203.327 55.8465 202.821 55.6686 202.019C55.4907 201.217 55.9954 200.423 56.796 200.244C57.5965 200.066 58.3897 200.572 58.5676 201.374Z" fill="white"/>
<path d="M66.1331 201.438C66.3999 202.641 65.6428 203.833 64.442 204.1C63.2411 204.367 62.0514 203.609 61.7845 202.406C61.5177 201.203 62.2748 200.011 63.4756 199.743C64.6764 199.476 65.8662 200.234 66.1331 201.438Z" fill="white"/>
<path d="M79.5075 210.443C81.1354 210.643 82.2932 212.128 82.0934 213.759C81.8937 215.39 80.412 216.55 78.7841 216.35C77.1562 216.15 75.9984 214.665 76.1982 213.034C76.3979 211.403 77.8796 210.243 79.5075 210.443Z" fill="white"/>
<path d="M73.677 226.35C74.491 226.45 75.0699 227.192 74.97 228.007C74.8701 228.823 74.1293 229.403 73.3153 229.303C72.5014 229.203 71.9225 228.46 72.0224 227.645C72.1222 226.829 72.863 226.249 73.677 226.35Z" fill="white"/>
<path d="M76.2654 219.227C77.4863 219.377 78.3546 220.49 78.2048 221.713C78.055 222.937 76.9438 223.807 75.7228 223.657C74.5019 223.507 73.6336 222.393 73.7834 221.17C73.9332 219.947 75.0444 219.077 76.2654 219.227Z" fill="white"/>
<path d="M89.684 210.131C90.3964 208.651 92.1716 208.029 93.6489 208.743C95.1262 209.457 95.7462 211.236 95.0338 212.716C94.3213 214.196 92.5461 214.817 91.0688 214.103C89.5915 213.39 88.9715 211.611 89.684 210.131Z" fill="white"/>
<path d="M102.843 220.776C103.199 220.036 104.087 219.725 104.826 220.082C105.564 220.439 105.874 221.328 105.518 222.068C105.162 222.808 104.274 223.119 103.535 222.762C102.797 222.405 102.487 221.516 102.843 220.776Z" fill="white"/>
<path d="M96.9432 216.03C97.4776 214.92 98.8089 214.454 99.9169 214.99C101.025 215.525 101.49 216.859 100.956 217.969C100.421 219.079 99.0898 219.545 97.9819 219.01C96.8739 218.474 96.4089 217.14 96.9432 216.03Z" fill="white"/>
<path d="M92.3995 199.987C91.2703 198.795 91.3192 196.912 92.5087 195.781C93.6982 194.649 95.5779 194.698 96.7071 195.89C97.8363 197.082 97.7875 198.965 96.598 200.097C95.4085 201.228 93.5288 201.179 92.3995 199.987Z" fill="white"/>
<path d="M106.996 191.428C106.431 190.832 106.456 189.89 107.05 189.324C107.645 188.759 108.585 188.783 109.15 189.379C109.714 189.975 109.69 190.916 109.095 191.482C108.5 192.048 107.56 192.023 106.996 191.428Z" fill="white"/>
<path d="M100.477 195.275C99.6301 194.381 99.6668 192.969 100.559 192.12C101.451 191.271 102.861 191.308 103.708 192.202C104.555 193.096 104.518 194.508 103.626 195.357C102.734 196.205 101.324 196.169 100.477 195.275Z" fill="white"/>
<path d="M122.3 72.1219C122.3 74.7511 120.173 76.8825 117.548 76.8825C114.924 76.8825 112.797 74.7511 112.797 72.1219C112.797 69.4927 114.924 67.3613 117.548 67.3613C120.173 67.3613 122.3 69.4927 122.3 72.1219Z" fill="white"/>
<path fill-rule="evenodd" clip-rule="evenodd" d="M89.3234 37.0584C89.839 34.6483 92.2071 33.1132 94.6127 33.6299C107.383 36.3724 118.447 46.3541 120.819 58.851C121.279 61.2725 119.692 63.6089 117.275 64.0694C114.858 64.5299 112.526 62.9403 112.067 60.5188C110.468 52.0963 102.591 44.4723 92.7454 42.3578C90.3398 41.8412 88.8077 39.4686 89.3234 37.0584Z" fill="white"/>
<path d="M67.0736 146.544C68.7844 148.538 68.5582 151.543 66.5683 153.257C64.5784 154.971 61.5784 154.745 59.8676 152.751C58.1568 150.757 58.383 147.752 60.3729 146.038C62.3628 144.324 65.3628 144.55 67.0736 146.544Z" fill="white"/>
<path fill-rule="evenodd" clip-rule="evenodd" d="M34.5933 137.371C32.5722 137.823 30.3312 138.972 28.0281 141.489C26.3657 143.306 23.5478 143.429 21.7343 141.763C19.9207 140.098 19.7982 137.275 21.4606 135.458C24.8743 131.727 28.6841 129.547 32.6535 128.659C36.5796 127.782 40.3525 128.237 43.6477 129.266C50.1056 131.284 55.3001 135.68 57.6984 138.255C59.377 140.057 59.2799 142.881 57.4813 144.563C55.6828 146.245 52.864 146.147 51.1853 144.345C49.4258 142.457 45.4882 139.191 40.9953 137.788C38.8149 137.106 36.6577 136.91 34.5933 137.371Z" fill="white"/>
<path d="M128.057 151.266C128.122 153.895 126.048 156.078 123.424 156.143C120.801 156.208 118.622 154.13 118.557 151.501C118.492 148.873 120.566 146.689 123.19 146.624C125.813 146.56 127.992 148.638 128.057 151.266Z" fill="white"/>
<path fill-rule="evenodd" clip-rule="evenodd" d="M94.3458 105.734C95.1712 103.412 97.7192 102.2 100.037 103.027C112.759 107.567 123.474 122.215 125.579 138.144C125.903 140.588 124.187 142.831 121.748 143.155C119.309 143.478 117.07 141.76 116.747 139.316C114.987 126.002 106.005 114.632 97.0476 111.436C94.73 110.609 93.5204 108.056 94.3458 105.734Z" fill="white"/>
<path d="M170.41 115.414C170.41 118.043 168.282 120.175 165.658 120.175C163.034 120.175 160.907 118.043 160.907 115.414C160.907 112.785 163.034 110.653 165.658 110.653C168.282 110.653 170.41 112.785 170.41 115.414Z" fill="white"/>
<path fill-rule="evenodd" clip-rule="evenodd" d="M152.798 84.1672C153.539 81.8167 156.041 80.513 158.387 81.2553C163.981 83.025 167.281 86.6331 168.87 91.0968C170.339 95.222 170.255 99.825 169.951 103.713C169.758 106.17 167.614 108.006 165.161 107.813C162.709 107.62 160.876 105.472 161.069 103.015C161.358 99.315 161.274 96.3307 160.479 94.0959C159.804 92.1997 158.575 90.6753 155.705 89.7672C153.359 89.0249 152.057 86.5177 152.798 84.1672Z" fill="white"/>
<path d="M244.059 115.414C244.059 118.043 241.932 120.175 239.308 120.175C236.683 120.175 234.556 118.043 234.556 115.414C234.556 112.785 236.683 110.653 239.308 110.653C241.932 110.653 244.059 112.785 244.059 115.414Z" fill="white"/>
<path fill-rule="evenodd" clip-rule="evenodd" d="M226.448 84.1672C227.188 81.8167 229.691 80.513 232.037 81.2553C237.63 83.025 240.93 86.6331 242.52 91.0968C243.988 95.222 243.904 99.825 243.6 103.713C243.408 106.17 241.264 108.006 238.811 107.813C236.358 107.62 234.526 105.472 234.718 103.015C235.008 99.315 234.924 96.3307 234.128 94.0959C233.453 92.1997 232.224 90.6753 229.354 89.7672C227.008 89.0249 225.707 86.5177 226.448 84.1672Z" fill="white"/>
</svg>
